<svg xmlns="http://www.w3.org/2000/svg" viewBox="0 0 1600 1200" fill="none">
  <defs>
    <linearGradient id="bg" x1="126" y1="86" x2="1476" y2="1122" gradientUnits="userSpaceOnUse">
      <stop stop-color="#FBF7F2"/>
      <stop offset="0.55" stop-color="#EFE2D5"/>
      <stop offset="1" stop-color="#D8E5D2"/>
    </linearGradient>
  </defs>
  <rect width="1600" height="1200" fill="url(#bg)"/>
  <ellipse cx="796" cy="944" rx="548" ry="144" fill="#E6D7C6"/>
  <rect x="302" y="760" width="996" height="126" rx="63" fill="#FBF8F3"/>
  <rect x="360" y="432" width="430" height="286" rx="58" fill="#FFFDF9"/>
  <rect x="410" y="484" width="330" height="70" rx="35" fill="#E9DDD2"/>
  <rect x="410" y="574" width="256" height="26" rx="13" fill="#D4E1CF"/>
  <rect x="410" y="618" width="210" height="26" rx="13" fill="#E6D2BE"/>
  <rect x="992" y="468" width="250" height="250" rx="62" fill="#D3E1CE"/>
  <circle cx="1118" cy="592" r="84" fill="#FFF8EE"/>
  <circle cx="1118" cy="592" r="36" fill="#9A7A63"/>
  <circle cx="896" cy="666" r="96" fill="#F4E8DA"/>
  <rect x="852" y="528" width="88" height="182" rx="44" fill="#FFF7ED"/>
  <path d="M860 520C906 458 938 402 968 318" stroke="#657760" stroke-width="18" stroke-linecap="round"/>
  <path d="M846 566C910 540 966 498 1020 430" stroke="#657760" stroke-width="18" stroke-linecap="round"/>
  <path d="M818 634C894 632 952 610 1036 552" stroke="#657760" stroke-width="18" stroke-linecap="round"/>
  <rect x="278" y="254" width="232" height="196" rx="54" fill="#FFF6EC" fill-opacity=".74"/>
  <rect x="1116" y="202" width="210" height="210" rx="105" fill="#FFF9F3" fill-opacity=".76"/>
</svg>
