<svg xmlns="http://www.w3.org/2000/svg" viewBox="0 0 1600 1200" fill="none">
  <defs>
    <linearGradient id="bg" x1="178" y1="86" x2="1460" y2="1116" gradientUnits="userSpaceOnUse">
      <stop stop-color="#FCFAF7"/>
      <stop offset="0.56" stop-color="#EFE2D5"/>
      <stop offset="1" stop-color="#D8E4D1"/>
    </linearGradient>
  </defs>
  <rect width="1600" height="1200" fill="url(#bg)"/>
  <ellipse cx="806" cy="952" rx="548" ry="156" fill="#E4D4C2"/>
  <rect x="214" y="180" width="580" height="780" rx="72" fill="#FBF8F3"/>
  <rect x="286" y="246" width="436" height="648" rx="46" fill="#FFFDF9"/>
  <rect x="332" y="302" width="344" height="74" rx="24" fill="#E9DDD2"/>
  <rect x="332" y="408" width="344" height="40" rx="20" fill="#D5E1D0"/>
  <rect x="332" y="474" width="344" height="40" rx="20" fill="#E6D2BE"/>
  <rect x="332" y="540" width="344" height="40" rx="20" fill="#D5E1D0"/>
  <rect x="332" y="606" width="156" height="136" rx="30" fill="#D8E5D2"/>
  <rect x="520" y="606" width="156" height="136" rx="30" fill="#F0E3D6"/>
  <rect x="332" y="774" width="344" height="58" rx="29" fill="#2F2926"/>
  <path d="M988 844C988 760.053 1056.05 692 1140 692H1370V980H988V844Z" fill="#FBF5EE"/>
  <rect x="1074" y="592" width="216" height="160" rx="58" fill="#D9E6D4"/>
  <path d="M1088 600C1132 554 1164 490 1182 430" stroke="#687A64" stroke-width="18" stroke-linecap="round"/>
  <path d="M1096 652C1150 636 1208 598 1262 536" stroke="#687A64" stroke-width="18" stroke-linecap="round"/>
  <path d="M1102 714C1168 720 1224 700 1282 656" stroke="#687A64" stroke-width="18" stroke-linecap="round"/>
  <ellipse cx="1176" cy="868" rx="246" ry="58" fill="#C5D5C0" fill-opacity=".42"/>
  <rect x="982" y="792" width="388" height="102" rx="42" fill="#7D6555"/>
  <rect x="1018" y="762" width="316" height="84" rx="34" fill="#F8F1EA"/>
  <rect x="1044" y="788" width="264" height="40" rx="20" fill="#E7D9CD"/>
  <rect x="1032" y="840" width="12" height="118" rx="6" fill="#6D594B"/>
  <rect x="1308" y="840" width="12" height="118" rx="6" fill="#6D594B"/>
  <rect x="1110" y="840" width="10" height="102" rx="5" fill="#6D594B"/>
  <rect x="1232" y="840" width="10" height="102" rx="5" fill="#6D594B"/>
  <circle cx="1364" cy="260" r="98" fill="#FFF6EB" fill-opacity=".72"/>
</svg>
