<svg xmlns="http://www.w3.org/2000/svg" viewBox="0 0 1600 1200" fill="none">
  <defs>
    <linearGradient id="bg" x1="112" y1="96" x2="1452" y2="1118" gradientUnits="userSpaceOnUse">
      <stop stop-color="#FBF8F3"/>
      <stop offset="0.6" stop-color="#EFE2D4"/>
      <stop offset="1" stop-color="#D8E4D1"/>
    </linearGradient>
  </defs>
  <rect width="1600" height="1200" fill="url(#bg)"/>
  <ellipse cx="804" cy="892" rx="560" ry="170" fill="#E9DCCF"/>
  <rect x="244" y="796" width="1112" height="150" rx="75" fill="#F9F3EC"/>
  <rect x="402" y="632" width="468" height="218" rx="56" fill="#FDFBF8"/>
  <rect x="438" y="666" width="398" height="62" rx="31" fill="#E9DDD2"/>
  <rect x="438" y="742" width="286" height="32" rx="16" fill="#D4E0CF"/>
  <rect x="744" y="742" width="92" height="32" rx="16" fill="#E9D7C5"/>
  <path d="M1058 790C1058 695.523 1134.52 619 1229 619C1323.48 619 1400 695.523 1400 790C1400 884.477 1323.48 961 1229 961C1134.52 961 1058 884.477 1058 790Z" fill="#FFF9F3"/>
  <circle cx="1229" cy="790" r="112" fill="#D9E6D4"/>
  <path d="M1198 604C1245 550 1280 492 1300 424" stroke="#6C7D67" stroke-width="18" stroke-linecap="round"/>
  <path d="M1194 652C1260 626 1310 586 1352 526" stroke="#6C7D67" stroke-width="18" stroke-linecap="round"/>
  <path d="M1176 716C1242 718 1296 696 1350 656" stroke="#6C7D67" stroke-width="18" stroke-linecap="round"/>
  <path d="M316 954C352 790 430 666 550 582C670 498 838 474 1054 510" stroke="#E5CFB8" stroke-width="26" stroke-linecap="round"/>
  <circle cx="546" cy="710" r="74" fill="#F1E4D5"/>
  <circle cx="570" cy="710" r="30" fill="#9D7B63"/>
  <rect x="1048" y="332" width="182" height="182" rx="91" fill="#FFF6EB" fill-opacity=".74"/>
  <rect x="304" y="280" width="250" height="250" rx="46" fill="#D4E1CF" fill-opacity=".66"/>
  <rect x="354" y="334" width="150" height="18" rx="9" fill="#8D9F87"/>
  <rect x="354" y="376" width="150" height="18" rx="9" fill="#8D9F87"/>
  <rect x="354" y="418" width="114" height="18" rx="9" fill="#8D9F87"/>
</svg>
