<svg xmlns="http://www.w3.org/2000/svg" viewBox="0 0 1600 1200" fill="none">
  <defs>
    <linearGradient id="bg" x1="162" y1="114" x2="1454" y2="1118" gradientUnits="userSpaceOnUse">
      <stop stop-color="#FCFAF7"/>
      <stop offset="0.55" stop-color="#F0E4D8"/>
      <stop offset="1" stop-color="#D8E5D1"/>
    </linearGradient>
  </defs>
  <rect width="1600" height="1200" fill="url(#bg)"/>
  <ellipse cx="802" cy="948" rx="548" ry="158" fill="#E7D7C7"/>
  <rect x="226" y="190" width="1148" height="820" rx="86" fill="#FBF8F3"/>
  <g opacity=".94">
    <rect x="300" y="270" width="290" height="290" rx="56" fill="#FFFDF9"/>
    <circle cx="446" cy="412" r="94" fill="#D8E4D2"/>
    <circle cx="446" cy="412" r="38" fill="#A47D67"/>
  </g>
  <g opacity=".94">
    <rect x="656" y="270" width="290" height="290" rx="56" fill="#FFFDF9"/>
    <rect x="734" y="330" width="134" height="164" rx="40" fill="#F2E7DB"/>
    <rect x="770" y="286" width="62" height="72" rx="24" fill="#C8D7C3"/>
  </g>
  <g opacity=".94">
    <rect x="1012" y="270" width="290" height="290" rx="56" fill="#FFFDF9"/>
    <circle cx="1158" cy="414" r="88" fill="#F4E8DB"/>
    <rect x="1086" y="366" width="146" height="96" rx="48" fill="#BB8C74"/>
  </g>
  <g opacity=".94">
    <rect x="300" y="624" width="290" height="290" rx="56" fill="#FFFDF9"/>
    <path d="M376 818C438 744 492 708 556 676" stroke="#6B7C66" stroke-width="22" stroke-linecap="round"/>
    <path d="M372 744C462 766 520 758 584 710" stroke="#6B7C66" stroke-width="22" stroke-linecap="round"/>
  </g>
  <g opacity=".94">
    <rect x="656" y="624" width="290" height="290" rx="56" fill="#FFFDF9"/>
    <rect x="738" y="690" width="126" height="160" rx="63" fill="#D9E6D4"/>
    <rect x="772" y="656" width="58" height="72" rx="29" fill="#71826B"/>
  </g>
  <g opacity=".94">
    <rect x="1012" y="624" width="290" height="290" rx="56" fill="#FFFDF9"/>
    <circle cx="1098" cy="750" r="50" fill="#F1E3D5"/>
    <circle cx="1180" cy="804" r="56" fill="#E6D1BC"/>
    <circle cx="1228" cy="726" r="36" fill="#D4E1CF"/>
  </g>
  <rect x="632" y="104" width="336" height="94" rx="47" fill="#FFF6EC" fill-opacity=".72"/>
</svg>
